<svg xmlns="http://www.w3.org/2000/svg" viewBox="0 0 512 512">
  <defs><linearGradient id="g" x1="0" y1="0" x2="1" y2="1"><stop stop-color="#8b0000"/><stop offset=".52" stop-color="#3b5998"/><stop offset="1" stop-color="#9caf88"/></linearGradient></defs>
  <rect width="512" height="512" rx="112" fill="#0f0f0f"/><circle cx="256" cy="256" r="190" fill="url(#g)"/>
  <path d="M109 267c40-91 99-98 147-11 48-87 107-80 147 11-40 91-99 98-147 11-48 87-107 80-147-11Zm51 0c29 48 51 48 79 0-28-48-50-48-79 0Zm113 0c28 48 50 48 79 0-29-48-51-48-79 0Z" fill="#fff"/>
</svg>
